<mxfile host="65bd71144e">
    <diagram id="Q9NRc6agMltzu8JO6nxs" name="Page-1">
        <mxGraphModel dx="1118" dy="526" grid="1" gridSize="10" guides="1" tooltips="1" connect="1" arrows="1" fold="1" page="1" pageScale="1" pageWidth="850" pageHeight="1100" math="0" shadow="0">
            <root>
                <mxCell id="0"/>
                <mxCell id="1" parent="0"/>
                <mxCell id="4" value="" style="whiteSpace=wrap;html=1;aspect=fixed;" vertex="1" parent="1">
                    <mxGeometry x="170" y="210" width="500" height="500" as="geometry"/>
                </mxCell>
                <mxCell id="5" value="" style="rounded=0;whiteSpace=wrap;html=1;fillColor=#1ba1e2;fontColor=#ffffff;strokeColor=#FFFFFF;" vertex="1" parent="1">
                    <mxGeometry x="170" y="210" width="500" height="40" as="geometry"/>
                </mxCell>
                <mxCell id="6" value="&lt;br&gt;JumboTron (video/pic)&lt;br&gt;&amp;nbsp;" style="rounded=0;whiteSpace=wrap;html=1;strokeColor=#AAAFA8;strokeWidth=3;shadow=0;gradientColor=none;fillColor=default;" vertex="1" parent="1">
                    <mxGeometry x="170" y="250" width="500" height="150" as="geometry"/>
                </mxCell>
                <mxCell id="7" value="Home" style="rounded=1;whiteSpace=wrap;html=1;strokeColor=#FFFFFF;strokeWidth=1;" vertex="1" parent="1">
                    <mxGeometry x="180" y="217.5" width="60" height="25" as="geometry"/>
                </mxCell>
                <mxCell id="8" value="Log In" style="rounded=1;whiteSpace=wrap;html=1;strokeColor=#FFFFFF;strokeWidth=1;" vertex="1" parent="1">
                    <mxGeometry x="520" y="217.5" width="60" height="25" as="geometry"/>
                </mxCell>
                <mxCell id="9" value="Create Account" style="rounded=1;whiteSpace=wrap;html=1;strokeColor=#FFFFFF;strokeWidth=1;" vertex="1" parent="1">
                    <mxGeometry x="600" y="217.5" width="60" height="25" as="geometry"/>
                </mxCell>
                <mxCell id="10" value="Welcome To Our&amp;nbsp;&lt;br&gt;Website!" style="rounded=1;whiteSpace=wrap;html=1;strokeColor=#FFFFFF;strokeWidth=1;" vertex="1" parent="1">
                    <mxGeometry x="365" y="330" width="120" height="60" as="geometry"/>
                </mxCell>
                <mxCell id="11" value="" style="rounded=0;whiteSpace=wrap;html=1;strokeColor=#FFFFFF;strokeWidth=1;" vertex="1" parent="1">
                    <mxGeometry x="220" y="410" width="120" height="55" as="geometry"/>
                </mxCell>
                <mxCell id="12" value="&lt;font color=&quot;#171717&quot;&gt;&lt;b&gt;Message&lt;/b&gt;&lt;/font&gt;" style="rounded=0;whiteSpace=wrap;html=1;strokeColor=#0e8088;strokeWidth=1;fillColor=#b0e3e6;" vertex="1" parent="1">
                    <mxGeometry x="220" y="465" width="120" height="45" as="geometry"/>
                </mxCell>
                <mxCell id="13" value="" style="rounded=0;whiteSpace=wrap;html=1;strokeColor=#FFFFFF;strokeWidth=1;" vertex="1" parent="1">
                    <mxGeometry x="365" y="410" width="120" height="55" as="geometry"/>
                </mxCell>
                <mxCell id="14" value="&lt;font color=&quot;#171717&quot;&gt;&lt;b&gt;Message&lt;/b&gt;&lt;/font&gt;" style="rounded=0;whiteSpace=wrap;html=1;strokeColor=#0e8088;strokeWidth=1;fillColor=#b0e3e6;" vertex="1" parent="1">
                    <mxGeometry x="365" y="465" width="120" height="45" as="geometry"/>
                </mxCell>
                <mxCell id="15" value="" style="rounded=0;whiteSpace=wrap;html=1;strokeColor=#FFFFFF;strokeWidth=1;" vertex="1" parent="1">
                    <mxGeometry x="510" y="410" width="120" height="55" as="geometry"/>
                </mxCell>
                <mxCell id="16" value="&lt;font color=&quot;#171717&quot;&gt;&lt;b&gt;Message&lt;/b&gt;&lt;/font&gt;" style="rounded=0;whiteSpace=wrap;html=1;strokeColor=#0e8088;strokeWidth=1;fillColor=#b0e3e6;" vertex="1" parent="1">
                    <mxGeometry x="510" y="465" width="120" height="45" as="geometry"/>
                </mxCell>
                <mxCell id="17" value="" style="rounded=0;whiteSpace=wrap;html=1;strokeColor=#FFFFFF;strokeWidth=1;" vertex="1" parent="1">
                    <mxGeometry x="220" y="530" width="120" height="55" as="geometry"/>
                </mxCell>
                <mxCell id="18" value="&lt;font color=&quot;#171717&quot;&gt;&lt;b&gt;Message&lt;/b&gt;&lt;/font&gt;" style="rounded=0;whiteSpace=wrap;html=1;strokeColor=#0e8088;strokeWidth=1;fillColor=#b0e3e6;" vertex="1" parent="1">
                    <mxGeometry x="220" y="585" width="120" height="45" as="geometry"/>
                </mxCell>
                <mxCell id="19" value="" style="rounded=0;whiteSpace=wrap;html=1;strokeColor=#FFFFFF;strokeWidth=1;" vertex="1" parent="1">
                    <mxGeometry x="365" y="530" width="120" height="55" as="geometry"/>
                </mxCell>
                <mxCell id="20" value="&lt;font color=&quot;#171717&quot;&gt;&lt;b&gt;Message&lt;/b&gt;&lt;/font&gt;" style="rounded=0;whiteSpace=wrap;html=1;strokeColor=#0e8088;strokeWidth=1;fillColor=#b0e3e6;" vertex="1" parent="1">
                    <mxGeometry x="365" y="585" width="120" height="45" as="geometry"/>
                </mxCell>
                <mxCell id="21" value="" style="rounded=0;whiteSpace=wrap;html=1;strokeColor=#FFFFFF;strokeWidth=1;" vertex="1" parent="1">
                    <mxGeometry x="510" y="530" width="120" height="55" as="geometry"/>
                </mxCell>
                <mxCell id="22" value="&lt;font color=&quot;#171717&quot;&gt;&lt;b&gt;Message&lt;/b&gt;&lt;/font&gt;" style="rounded=0;whiteSpace=wrap;html=1;strokeColor=#0e8088;strokeWidth=1;fillColor=#b0e3e6;" vertex="1" parent="1">
                    <mxGeometry x="510" y="585" width="120" height="45" as="geometry"/>
                </mxCell>
                <mxCell id="23" value="Cory Smith @ 2022" style="rounded=0;whiteSpace=wrap;html=1;strokeColor=#006EAF;strokeWidth=1;fillColor=#1ba1e2;fontColor=#ffffff;align=left;" vertex="1" parent="1">
                    <mxGeometry x="170" y="650" width="500" height="60" as="geometry"/>
                </mxCell>
            </root>
        </mxGraphModel>
    </diagram>
</mxfile>